OpenSim_Sub11_EMGPreOp_GRF.mot
version=1
nRows=64
nColumns=19
inDegrees=no
endheader
time	lFx	lFy	lFz	lCOPx	lCOPy	lCOPz	rFx	rFy	rFz	rCOPx	rCOPy	rCOPz	lMx	lMy	lMz	rMx	rMy	rMz
14.71000000	3.84280290	-4.68278304	2.98663357	0.00000041	0	-0.00000034	-6.28777991	671.92679694	-49.04508243	0.70207922	0	-0.39764840	0	0.00000024	0	0	1.07820271	0
14.72000000	3.85806560	-4.72834324	2.99559622	-0.00000002	0	0.00000001	-4.85223976	662.35154725	-48.76131568	0.69939805	0	-0.39750804	0	-0.00000042	0	0	1.11187678	0
14.73000000	3.86753624	-4.73390733	3.02053821	-0.00000017	0	0.00000013	-3.57774991	652.00036643	-48.46119950	0.69678388	0	-0.39740620	0	-0.00000078	0	0	1.12138985	0
14.74000000	3.83235129	-4.71730046	3.01555506	-0.00000010	0	0.00000008	-2.54759036	641.73632504	-48.10613523	0.69403232	0	-0.39735206	0	-0.00000050	0	0	1.13486286	0
14.75000000	3.77576140	-4.63824818	3.04053884	0.00000025	0	-0.00000014	-1.72938660	632.46995330	-47.65336332	0.69122481	0	-0.39734437	0	0.00000130	0	0	1.15113678	0
14.76000000	3.75543350	-4.64138036	3.06218399	0.00000099	0	-0.00000061	-1.09733045	624.89156108	-47.03683447	0.68839612	0	-0.39736498	0	0.00000568	0	0	1.14857846	0
14.77000000	3.75835848	-4.64763973	3.09479542	0.00000195	0	-0.00000123	-0.63232729	619.28170026	-46.25044623	0.68546215	0	-0.39740159	0	0.00001232	0	0	1.13547981	0
14.78000000	3.76275951	-4.65253913	3.10560222	0.00000218	0	-0.00000141	-0.18590908	615.69172368	-45.34947586	0.68255108	0	-0.39746757	0	0.00001612	0	0	1.10749374	0
14.79000000	3.72713425	-4.61575174	3.11693864	-0.00000074	0	0.00000035	0.33338773	614.08733421	-44.38002332	0.67988374	0	-0.39755388	0	0.00000258	0	0	1.05187102	0
14.80000000	3.66173770	-4.56578753	3.09176012	-0.00001053	0	0.00000639	0.92221051	614.45615099	-43.39199735	0.67756891	0	-0.39765749	0	-0.00005324	0	0	0.97956225	-0.00000000
14.81000000	3.59720623	-4.46747967	3.04348157	-0.00002939	0	0.00001823	1.58402639	616.52787593	-42.41825136	0.67527700	0	-0.39781797	0	-0.00017261	0	0	0.93073106	0
14.82000000	3.55299656	-4.39166841	2.99345444	-0.00005000	0	0.00003153	2.52541054	619.82737573	-41.47352923	0.67262142	0	-0.39804774	0	-0.00032610	0	0	0.89912137	0
14.83000000	3.51920620	-4.31584953	2.97193011	-0.00004147	0	0.00002731	3.86110675	623.78825415	-40.59399878	0.66962303	0	-0.39835195	0	-0.00034300	0	0	0.86783217	0.00000000
14.84000000	3.51089802	-4.30477106	2.92001279	0.00006272	0	-0.00003601	5.40864233	628.04892507	-39.79139741	0.66678539	0	-0.39869875	0	0.00018735	0	0	0.82359261	-0.00000000
14.85000000	3.48671545	-4.32122055	2.89161883	0.00034911	0	-0.00021371	7.01331937	632.41857534	-39.03464813	0.66411170	0	-0.39906181	0	0.00187370	0	0	0.73861792	0
14.86000000	3.41396491	-4.36894180	2.88152856	0.00083007	0	-0.00051716	8.72829631	636.81416338	-38.37500522	0.66138548	0	-0.39941520	0	0.00502096	0	0	0.66263508	0
14.87000000	3.27660819	-4.47082092	2.91466680	0.00121527	0	-0.00077155	10.52281023	641.13950844	-37.86293616	0.65851192	0	-0.39969459	0	0.00825361	0	0	0.63834072	0.00000000
14.88000000	3.06732024	-4.73350676	2.99474902	0.00056981	0	-0.00039904	12.31544401	645.30307180	-37.58006111	0.65554895	0	-0.39988116	0	0.00620776	0	0	0.63673806	0.00000000
14.89000000	2.79604126	-5.06459649	3.13208663	-0.00286517	0	0.00170501	14.15935813	649.27449494	-37.53656866	0.65251305	0	-0.39998838	0	-0.01230802	0	0	0.62205783	0.00000000
14.90000000	2.63246134	-5.15203210	3.18539100	-0.01092482	0	0.00672850	15.98529434	653.02029615	-37.68742704	0.64947026	0	-0.40004262	0	-0.06118762	0	0	0.59776050	-0.00000000
14.91000000	3.10605589	-4.06959746	2.85841856	-0.02255313	0	0.01411637	17.69642196	656.55511083	-37.95177867	0.64658994	0	-0.40005640	0	-0.14049399	0	0	0.53819002	-0.00000000
14.92000000	5.20187823	-0.27232713	1.62666257	-0.02756132	0	0.01766638	19.24705920	659.81639669	-38.29120242	0.64388778	0	-0.40005010	0	-0.19773565	0	0	0.43761251	0.00000000
14.93000000	9.73991048	7.34596455	-0.99412400	0.00121248	0	0.00051142	20.80102805	662.75426978	-38.66165548	0.64120596	0	-0.40003011	0	-0.07210972	0	0	0.31116378	0
14.94000000	15.99237636	18.09098543	-4.53425640	0.10821806	0	-0.06542443	22.41461807	665.20562015	-39.02219965	0.63835124	0	-0.40000537	0	0.52921636	0	0	0.20032521	0
14.95000000	21.98839482	30.03481937	-8.04913382	0.32642664	0	-0.20206362	24.02552961	666.99434535	-39.31995758	0.63562759	0	-0.39996913	0	1.89223173	0	0	0.10786744	0
14.96000000	25.45531994	41.16487867	-10.52486963	0.59362011	0	-0.37322113	25.60749601	667.90710453	-39.51887237	0.63299998	0	-0.39994259	0	3.81405766	0	0	0.02213832	-0.00000000
14.97000000	24.82588840	49.81713539	-11.38098510	0.77218726	0	-0.49281126	27.26210124	667.92578617	-39.61071143	0.63039536	0	-0.39992104	0	5.43549712	0	0	-0.04485849	-0.00000000
14.98000000	21.20552790	56.36177332	-10.70154812	0.84505523	0	-0.54659420	28.94149083	667.08072704	-39.61173073	0.62769340	0	-0.39988551	0	6.29072877	0	0	-0.10860732	0.00000000
14.99000000	17.24178657	62.78723834	-8.98802092	0.85664344	0	-0.56194038	30.52113636	665.47507007	-39.58566734	0.62496093	0	-0.39982037	0	6.54185234	0	0	-0.16098595	0.00000000
15.00000000	14.57274230	70.60887405	-6.35272376	0.84452777	0	-0.56421846	31.99923936	663.04488355	-39.58968870	0.62207072	0	-0.39974460	0	6.38291582	0	0	-0.19790400	0.00000000
15.01000000	13.45828939	80.29333189	-2.83806491	0.82551230	0	-0.56565416	33.33598739	659.77619884	-39.68962595	0.61910247	0	-0.39969057	0	5.92901627	0	0	-0.20102600	-0.00000000
15.02000000	13.30136423	92.03038706	1.33727525	0.80741747	0	-0.56983516	34.44169384	655.65663736	-39.84600729	0.61620070	0	-0.39965963	0	5.24281536	0	0	-0.21391881	-0.00000000
15.03000000	13.20672291	106.07922189	5.79794930	0.79437762	0	-0.57616648	35.23866987	650.66023264	-40.03738435	0.61368469	0	-0.39963249	0	4.46076550	0	0	-0.28070885	-0.00000000
15.04000000	12.41625261	122.29696437	10.17227612	0.78815815	0	-0.58286835	35.83687301	644.54415427	-40.20945111	0.61140455	0	-0.39956990	0	3.68519114	0	0	-0.42209851	0
15.05000000	10.74290428	140.08308138	13.94947395	0.78649407	0	-0.58842903	36.29123892	637.08249336	-40.32513715	0.60932761	0	-0.39942429	0	3.08422202	0	0	-0.59587742	0.00000000
15.06000000	8.44920192	159.37464603	16.97443329	0.78618902	0	-0.59250317	36.41162584	628.24658077	-40.39266413	0.60754902	0	-0.39917856	0	2.77395951	0	0	-0.77010738	0
15.07000000	5.95511068	180.51180828	19.49654938	0.78504685	0	-0.59516906	36.11298076	618.31608029	-40.40782874	0.60602440	0	-0.39883505	0	2.71029991	0	0	-0.91772841	0
15.08000000	3.66813486	204.10102874	21.78927002	0.78240599	0	-0.59685056	35.61792606	607.69519549	-40.30655705	0.60464265	0	-0.39846119	0	2.80477407	0	0	-1.05006520	0
15.09000000	1.82715590	230.16333136	23.99875264	0.77864656	0	-0.59802050	35.04203896	596.69752640	-40.02495154	0.60341216	0	-0.39808399	0	3.00703442	0	0	-1.18695238	0
15.10000000	0.40710368	258.17177783	26.43865061	0.77509297	0	-0.59906372	34.39995716	585.19247607	-39.63000140	0.60232056	0	-0.39772507	0	3.19709268	0	0	-1.32632307	0.00000000
15.11000000	-0.77000818	287.38955136	29.28135880	0.77203842	0	-0.60016291	33.76656443	572.74887106	-39.20944967	0.60122328	0	-0.39738131	0	3.32471107	0	0	-1.45127919	0
15.12000000	-1.81122580	317.15538276	32.47496911	0.76898718	0	-0.60128870	33.13278420	559.05146475	-38.82841935	0.60031573	0	-0.39702400	0	3.40204377	0	0	-1.54635193	0
15.13000000	-2.63485849	346.84923516	35.80246212	0.76567811	0	-0.60234488	32.35799310	543.76581198	-38.46169965	0.59966729	0	-0.39658383	0	3.47278780	0	0	-1.62570264	0
15.14000000	-3.17033577	375.60681349	39.08435309	0.76231894	0	-0.60323413	31.29249185	526.48395712	-38.08417520	0.59907930	0	-0.39599306	0	3.49023542	0	0	-1.65271352	0
15.15000000	-3.53693698	402.59654157	42.20236519	0.75930648	0	-0.60387282	29.98082715	506.70964023	-37.65726002	0.59821351	0	-0.39532257	0	3.42325087	0	0	-1.61573120	0
15.16000000	-3.85797727	427.31280097	45.09915290	0.75646099	0	-0.60432471	28.52810589	484.67892282	-37.13673388	0.59768829	0	-0.39465214	0	3.34017944	0	0	-1.58192890	0.00000000
15.17000000	-4.20126037	449.65583244	47.75217696	0.75374620	0	-0.60469202	26.83523225	460.97226192	-36.48645626	0.59793212	0	-0.39392529	0	3.29981634	0	0	-1.58104030	-0.00000000
15.18000000	-4.54240416	469.72342098	50.08468868	0.75124273	0	-0.60508896	24.72171988	435.89013243	-35.68888126	0.59882879	0	-0.39301870	0	3.30142092	0	0	-1.56926852	0
15.19000000	-4.73787850	487.42758347	52.04659795	0.74874410	0	-0.60556475	22.27556271	409.66273158	-34.61863172	0.60023278	0	-0.39190564	0	3.29929921	0	0	-1.53291744	0
15.20000000	-4.67052759	502.51128430	53.60991669	0.74608427	0	-0.60605812	19.53359309	382.42181531	-33.14987559	0.60211653	0	-0.39064944	0	3.26064312	0	0	-1.45071961	0
15.21000000	-4.44231542	515.08782768	54.85979499	0.74335728	0	-0.60650690	16.53269185	354.24198611	-31.19917419	0.60456526	0	-0.38934731	0	3.17018189	0	0	-1.33467254	0
15.22000000	-4.20297573	525.53564394	55.91936112	0.74081094	0	-0.60685072	13.46228589	325.33611756	-28.99230543	0.60806784	0	-0.38803012	0	3.05145944	0	0	-1.19945729	0.00000000
15.23000000	-3.93126427	534.11568849	56.78302093	0.73837949	0	-0.60710907	10.47007922	296.11396969	-26.90495839	0.61262905	0	-0.38648680	0	2.92571041	0	0	-1.07499860	0
15.24000000	-3.44952426	541.17967263	57.31159127	0.73577626	0	-0.60729429	7.57383596	267.50129895	-25.07900662	0.61847808	0	-0.38453886	0	2.83735062	0	0	-0.96267618	-0.00000000
15.25000000	-2.78094078	547.53760940	57.51178213	0.73298667	0	-0.60738988	4.86762468	240.66577005	-23.31544551	0.62491236	0	-0.38234324	0	2.81799031	0	0	-0.83407630	0.00000000
15.26000000	-2.09747376	553.83348976	57.50189539	0.73005807	0	-0.60735995	2.63297377	216.91899285	-21.33749556	0.63108145	0	-0.38021084	0	2.88395801	0	0	-0.62834996	0
15.27000000	-1.42224919	560.51632547	57.36711396	0.72719761	0	-0.60727582	1.07299781	196.79037206	-18.83781855	0.63559762	0	-0.37865736	0	3.03797438	0	0	-0.36165518	-0.00000000
15.28000000	-0.72278585	567.89117317	57.14531480	0.72433960	0	-0.60718246	0.33690420	180.20808969	-15.81836716	0.63808568	0	-0.37774010	0	3.27844925	0	0	-0.08536967	0
15.29000000	0.04183623	576.12577508	56.99147161	0.72139429	0	-0.60709443	0.39298607	166.31117700	-12.80690610	0.63889061	0	-0.37730893	0	3.55076110	0	0	0.11958090	0.00000000
15.30000000	0.97984416	585.16814015	56.96351450	0.71811518	0	-0.60706761	0.91565603	153.99092519	-10.38615456	0.63931717	0	-0.37712721	0	3.83646449	0	0	0.26964332	0
15.31000000	2.16877873	594.73026100	57.07667564	0.71451679	0	-0.60714541	1.61058378	142.38099152	-8.60074833	0.63935406	0	-0.37701951	0	4.08021311	0	0	0.37414213	0
15.32000000	3.49364814	604.04276169	57.24538886	0.71091554	0	-0.60725574	2.13304818	131.15973877	-7.21153354	0.63944007	0	-0.37706789	0	4.28731157	0	0	0.48350094	0
15.33000000	4.76651879	612.61378378	57.46041179	0.70771404	0	-0.60734940	2.21073902	120.17863314	-5.83081564	0.63970496	0	-0.37768919	0	4.45623519	0	0	0.59405254	0
15.34000000	6.00342095	620.31467233	57.68282225	0.70473065	0	-0.60735972	2.03075749	109.08091252	-4.27199305	0.64169419	0	-0.37944880	0	4.63361448	0	0	0.68551532	0
